arm26_states
version=1
nRows=24
nColumns=17
inDegrees=yes

# SIMM Motion File Header:
name arm26_states
datacolumns 17
datarows 24
otherdata 1
range 0.14576384 0.20127697
endheader
time	/jointset/r_shoulder/r_shoulder_elev/value	/jointset/r_shoulder/r_shoulder_elev/speed	/jointset/r_elbow/r_elbow_flex/value	/jointset/r_elbow/r_elbow_flex/speed	/forceset/TRIlong/activation	/forceset/TRIlong/fiber_length	/forceset/TRIlat/activation	/forceset/TRIlat/fiber_length	/forceset/TRImed/activation	/forceset/TRImed/fiber_length	/forceset/BIClong/activation	/forceset/BIClong/fiber_length	/forceset/BICshort/activation	/forceset/BICshort/fiber_length	/forceset/BRA/activation	/forceset/BRA/fiber_length
      0.14576384	     -3.06686094	    -15.86186640	     38.06138538	    -81.01329364	      0.00667460	      0.14984402	      0.00667460	      0.08583462	      0.00667460	      0.08080252	      0.00667460	      0.13720254	      0.00667460	      0.13545120	      0.00667460	      0.08449761
      0.14866027	     -3.11231012	    -15.52225275	     37.82342351	    -83.28831786	      0.00630168	      0.14972443	      0.00630168	      0.08574061	      0.00630168	      0.08070858	      0.00630168	      0.13733322	      0.00630168	      0.13557974	      0.00630168	      0.08454950
      0.15155671	     -3.15678862	    -15.19202630	     37.57898441	    -85.48437555	      0.00592877	      0.14960284	      0.00592877	      0.08564385	      0.00592877	      0.08061190	      0.00592877	      0.13746868	      0.00592877	      0.13571110	      0.00592877	      0.08460290
      0.15445314	     -3.20032306	    -14.86998188	     37.32829440	    -87.60606459	      0.00555585	      0.14947930	      0.00555585	      0.08554441	      0.00555585	      0.08051257	      0.00555585	      0.13760400	      0.00555585	      0.13584512	      0.00555585	      0.08465777
      0.15734957	     -3.24293833	    -14.55797909	     37.07157293	    -89.64680816	      0.00518294	      0.14935387	      0.00518294	      0.08544239	      0.00518294	      0.08041067	      0.00518294	      0.13774456	      0.00518294	      0.13598163	      0.00518294	      0.08471406
      0.15988808	     -3.27955400	    -14.29128326	     36.84179949	    -91.37453785	      0.00485610	      0.14924244	      0.00485610	      0.08535092	      0.00485610	      0.08031932	      0.00485610	      0.13786591	      0.00485610	      0.13610318	      0.00485610	      0.08476452
      0.16242658	     -3.31550272	    -14.03296708	     36.60771960	    -93.03808493	      0.00452927	      0.14912967	      0.00452927	      0.08525759	      0.00452927	      0.08022613	      0.00452927	      0.13799205	      0.00452927	      0.13622642	      0.00452927	      0.08481601
      0.16496508	     -3.35080487	    -13.78150849	     36.36949264	    -94.64325756	      0.00420244	      0.14901559	      0.00420244	      0.08516247	      0.00420244	      0.08013115	      0.00420244	      0.13811672	      0.00420244	      0.13635124	      0.00420244	      0.08486848
      0.16750358	     -3.38547900	    -13.53863650	     36.12727063	    -96.18399476	      0.00387561	      0.14890025	      0.00387561	      0.08506562	      0.00387561	      0.08003446	      0.00387561	      0.13824542	      0.00387561	      0.13647753	      0.00387561	      0.08492191
      0.17004209	     -3.41954637	    -13.30297851	     35.88121481	    -97.66559655	      0.00354877	      0.14878370	      0.00354877	      0.08496710	      0.00354877	      0.07993611	      0.00354877	      0.13837216	      0.00354877	      0.13660518	      0.00354877	      0.08497626
      0.17258059	     -3.45302638	    -13.07660895	     35.63147890	    -99.08078334	      0.00322194	      0.14866599	      0.00322194	      0.08486697	      0.00322194	      0.07983616	      0.00322194	      0.13850397	      0.00322194	      0.13673409	      0.00322194	      0.08503150
      0.17481784	     -3.48206438	    -12.88299634	     35.40846122	   -100.27981968	      0.00293390	      0.14856132	      0.00293390	      0.08477745	      0.00293390	      0.07974680	      0.00293390	      0.13861658	      0.00293390	      0.13684867	      0.00293390	      0.08508089
      0.17705508	     -3.51067741	    -12.69712545	     35.18281858	   -101.42582002	      0.00264585	      0.14845582	      0.00264585	      0.08468677	      0.00264585	      0.07965630	      0.00264585	      0.13873375	      0.00264585	      0.13696408	      0.00264585	      0.08513093
      0.17929233	     -3.53888182	    -12.51740631	     34.95466594	   -102.52482623	      0.00235781	      0.14834951	      0.00235781	      0.08459497	      0.00235781	      0.07956470	      0.00235781	      0.13884869	      0.00235781	      0.13708024	      0.00235781	      0.08518158
      0.18152958	     -3.56669232	    -12.34530683	     34.72411159	   -103.57172290	      0.00206976	      0.14824244	      0.00206976	      0.08450212	      0.00206976	      0.07947204	      0.00206976	      0.13896657	      0.00206976	      0.13719710	      0.00206976	      0.08523282
      0.18423654	     -3.59983886	    -12.14580180	     34.44210465	   -104.77443605	      0.00172124	      0.14811191	      0.00172124	      0.08438841	      0.00172124	      0.07935858	      0.00172124	      0.13910653	      0.00172124	      0.13733933	      0.00172124	      0.08529559
      0.18622230	     -3.62381870	    -12.00718997	     34.23321477	   -105.60634212	      0.00146557	      0.14801550	      0.00146557	      0.08430409	      0.00146557	      0.07927445	      0.00146557	      0.13921336	      0.00146557	      0.13744415	      0.00146557	      0.08534214
      0.18820805	     -3.64752852	    -11.87359589	     34.02271040	   -106.40141244	      0.00120991	      0.14791857	      0.00120991	      0.08421905	      0.00120991	      0.07918960	      0.00120991	      0.13931696	      0.00120991	      0.13754937	      0.00120991	      0.08538910
      0.19076187	     -3.67764175	    -11.71134465	     33.74973763	   -107.36211052	      0.00088110	      0.14779318	      0.00088110	      0.08410866	      0.00088110	      0.07907948	      0.00088110	      0.13945384	      0.00088110	      0.13768517	      0.00088110	      0.08545006
      0.19286489	     -3.70213647	    -11.58437699	     33.52316335	   -108.10648885	      0.00061034	      0.14768934	      0.00061034	      0.08401694	      0.00061034	      0.07898798	      0.00061034	      0.13956317	      0.00061034	      0.13779733	      0.00061034	      0.08550073
      0.19496791	     -3.72637196	    -11.46533349	     33.29507319	   -108.80187678	      0.00033957	      0.14758501	      0.00033957	      0.08392454	      0.00033957	      0.07889580	      0.00033957	      0.13967686	      0.00033957	      0.13790974	      0.00033957	      0.08555179
      0.19707093	     -3.75036401	    -11.35239399	     33.06556672	   -109.45513479	      0.00006881	      0.14748020	      0.00006881	      0.08383147	      0.00006881	      0.07880298	      0.00006881	      0.13978690	      0.00006881	      0.13802236	      0.00006881	      0.08560322
      0.19917395	     -3.77412640	    -11.24741533	     32.83473580	   -110.05971792	     -0.00020195	      0.14737495	     -0.00020195	      0.08373779	     -0.00020195	      0.07870954	     -0.00020195	      0.13990063	     -0.00020195	      0.13813512	     -0.00020195	      0.08565501
      0.20127697	     -3.79767516	    -11.14874997	     32.60267992	   -110.62185544	     -0.00047272	      0.14726930	     -0.00047272	      0.08364354	     -0.00047272	      0.07861554	     -0.00047272	      0.14001078	     -0.00047272	      0.13824798	     -0.00047272	      0.08570714
